<svg width="28" height="28" viewBox="0 0 28 28" fill="none" xmlns="http://www.w3.org/2000/svg">
<path d="M24.7917 14H10.3775M5.28966 14H3.20833M5.28966 14C5.28966 13.3255 5.55762 12.6786 6.03459 12.2016C6.51155 11.7246 7.15846 11.4567 7.833 11.4567C8.50753 11.4567 9.15444 11.7246 9.6314 12.2016C10.1084 12.6786 10.3763 13.3255 10.3763 14C10.3763 14.6745 10.1084 15.3214 9.6314 15.7984C9.15444 16.2754 8.50753 16.5433 7.833 16.5433C7.15846 16.5433 6.51155 16.2754 6.03459 15.7984C5.55762 15.3214 5.28966 14.6745 5.28966 14ZM24.7917 21.7082H18.0857M18.0857 21.7082C18.0857 22.3829 17.8171 23.0305 17.34 23.5076C16.8629 23.9847 16.2159 24.2527 15.5412 24.2527C14.8666 24.2527 14.2197 23.9835 13.7428 23.5066C13.2658 23.0296 12.9978 22.3827 12.9978 21.7082M18.0857 21.7082C18.0857 21.0335 17.8171 20.387 17.34 19.9099C16.8629 19.4329 16.2159 19.1648 15.5412 19.1648C14.8666 19.1648 14.2197 19.4328 13.7428 19.9098C13.2658 20.3867 12.9978 21.0336 12.9978 21.7082M12.9978 21.7082H3.20833M24.7917 6.29184H21.1692M16.0813 6.29184H3.20833M16.0813 6.29184C16.0813 5.6173 16.3493 4.9704 16.8263 4.49343C17.3032 4.01646 17.9501 3.7485 18.6247 3.7485C18.9587 3.7485 19.2894 3.81429 19.598 3.9421C19.9065 4.06992 20.1869 4.25726 20.4231 4.49343C20.6592 4.7296 20.8466 5.00997 20.9744 5.31855C21.1022 5.62712 21.168 5.95784 21.168 6.29184C21.168 6.62583 21.1022 6.95656 20.9744 7.26513C20.8466 7.5737 20.6592 7.85408 20.4231 8.09025C20.1869 8.32642 19.9065 8.51376 19.598 8.64157C19.2894 8.76939 18.9587 8.83517 18.6247 8.83517C17.9501 8.83517 17.3032 8.56721 16.8263 8.09025C16.3493 7.61328 16.0813 6.96637 16.0813 6.29184Z" stroke="black" stroke-width="1.5" stroke-miterlimit="10" stroke-linecap="round"/>
</svg>
