<svg width="18" height="18" viewBox="0 0 18 18" fill="none" xmlns="http://www.w3.org/2000/svg">
<path d="M17.113 2.14931L17.768 1.47607C18.0773 1.14855 18.0773 0.711859 17.768 0.411632L17.5588 0.193285C17.2767 -0.0887471 16.8309 -0.0523558 16.5307 0.238774L15.8666 0.893816L17.113 2.14931ZM6.16831 12.075L7.94238 11.3017L16.4397 2.81345L15.1933 1.58525L6.70508 10.0735L5.88628 11.7839C5.8135 11.9385 5.99545 12.1478 6.16831 12.075ZM2.85671 17.9704H13.5375C15.1751 17.9704 16.1213 17.0242 16.1213 15.1501V5.42452L14.6566 6.88927V15.0773C14.6566 16.0235 14.1471 16.5056 13.5193 16.5056H2.884C1.97422 16.5056 1.46475 16.0235 1.46475 15.0773V4.75128C1.46475 3.80511 1.97422 3.31383 2.884 3.31383H11.1721L12.6368 1.84908H2.85671C0.964367 1.84908 0 2.79526 0 4.6694V15.1501C0 17.0333 0.964367 17.9704 2.85671 17.9704Z" fill="#007AFF"/>
</svg>
