<svg width="17" height="17" viewBox="0 0 17 17" fill="none" xmlns="http://www.w3.org/2000/svg">
<path d="M8.5 17C13.15 17 17 13.1417 17 8.5C17 3.85 13.1417 0 8.49167 0C3.85 0 0 3.85 0 8.5C0 13.1417 3.85833 17 8.5 17ZM8.5 15.5833C4.56667 15.5833 1.425 12.4333 1.425 8.5C1.425 4.56667 4.55833 1.41667 8.49167 1.41667C12.425 1.41667 15.5833 4.56667 15.5833 8.5C15.5833 12.4333 12.4333 15.5833 8.5 15.5833ZM4.60833 9.70833C5.275 9.70833 5.81667 9.16667 5.81667 8.49167C5.81667 7.825 5.26667 7.28333 4.60833 7.28333C3.93333 7.28333 3.39167 7.825 3.39167 8.49167C3.39167 9.16667 3.93333 9.70833 4.60833 9.70833ZM8.49167 9.70833C9.15833 9.70833 9.70833 9.16667 9.70833 8.49167C9.70833 7.825 9.15833 7.28333 8.49167 7.28333C7.825 7.28333 7.275 7.825 7.275 8.49167C7.275 9.16667 7.825 9.70833 8.49167 9.70833ZM12.3833 9.70833C13.05 9.70833 13.5917 9.16667 13.5917 8.49167C13.5917 7.825 13.05 7.28333 12.3833 7.28333C11.7083 7.28333 11.1667 7.825 11.1667 8.49167C11.1667 9.16667 11.7083 9.70833 12.3833 9.70833Z" fill="#007AFF"/>
</svg>
