<svg width="26" height="26" viewBox="0 0 26 26" fill="none" xmlns="http://www.w3.org/2000/svg">
<g clip-path="url(#clip0_9_3769)">
<mask id="mask0_9_3769" style="mask-type:luminance" maskUnits="userSpaceOnUse" x="0" y="0" width="26" height="26">
<path d="M0 0H26V26H0V0Z" fill="white"/>
<path fill-rule="evenodd" clip-rule="evenodd" d="M7.5 6C7.5 5.86739 7.55268 5.74021 7.64645 5.64645C7.74021 5.55268 7.86739 5.5 8 5.5H18C18.1326 5.5 18.2598 5.55268 18.3536 5.64645C18.4473 5.74021 18.5 5.86739 18.5 6V20C18.5 20.0991 18.4705 20.1959 18.4154 20.2782C18.3603 20.3605 18.2819 20.4245 18.1903 20.4622C18.0988 20.5 17.998 20.5096 17.9009 20.49C17.8038 20.4704 17.7148 20.4223 17.645 20.352L13 15.676L8.355 20.352C8.28524 20.4223 8.19617 20.4704 8.09908 20.49C8.00198 20.5096 7.90125 20.5 7.80965 20.4622C7.71805 20.4245 7.63972 20.3605 7.58459 20.2782C7.52946 20.1959 7.50002 20.0991 7.5 20V6ZM8.5 6.5V18.787L12.645 14.615C12.6915 14.5681 12.7468 14.5309 12.8077 14.5056C12.8686 14.4802 12.934 14.4671 13 14.4671C13.066 14.4671 13.1314 14.4802 13.1923 14.5056C13.2532 14.5309 13.3085 14.5681 13.355 14.615L17.5 18.787V6.5H8.5Z" fill="black"/>
</mask>
<g mask="url(#mask0_9_3769)">
<path d="M13 26C20.1797 26 26 20.1797 26 13C26 5.8203 20.1797 0 13 0C5.8203 0 0 5.8203 0 13C0 20.1797 5.8203 26 13 26Z" fill="white"/>
</g>
</g>
<defs>
<clipPath id="clip0_9_3769">
<rect width="26" height="26" fill="white"/>
</clipPath>
</defs>
</svg>
