<svg width="28" height="28" viewBox="0 0 28 28" fill="none" xmlns="http://www.w3.org/2000/svg">
<path d="M23.3695 24.255C23.9062 24.7917 24.7345 23.9633 24.1978 23.4383L19.8228 19.0517C21.3575 17.3536 22.2058 15.1455 22.2029 12.8567C22.2029 7.73501 18.0378 3.57001 12.9162 3.57001C7.79452 3.57001 3.62952 7.73501 3.62952 12.8567C3.62952 17.9783 7.79452 22.1433 12.9162 22.1433C15.2262 22.1433 17.3612 21.2917 18.9945 19.88L23.3695 24.255ZM4.79502 12.8567C4.79502 8.37667 8.44668 4.73667 12.915 4.73667C17.395 4.73667 21.035 8.37667 21.035 12.8567C21.035 17.3367 17.395 20.9767 12.915 20.9767C8.44668 20.9767 4.79502 17.3367 4.79502 12.8567Z" fill="black"/>
</svg>
