<svg width="33" height="19" viewBox="0 0 33 19" fill="none" xmlns="http://www.w3.org/2000/svg">
<path fill-rule="evenodd" clip-rule="evenodd" d="M13.7273 0.308288C13.9921 0.505941 14.1409 0.773869 14.1409 1.05322C14.1409 1.33257 13.9921 1.6005 13.7273 1.79815L4.82637 8.43224H31.5857C31.9608 8.43224 32.3205 8.54331 32.5858 8.741C32.851 8.93869 33 9.20681 33 9.48639C33 9.76597 32.851 10.0341 32.5858 10.2318C32.3205 10.4295 31.9608 10.5405 31.5857 10.5405H4.82637L13.7273 17.1746C13.8662 17.2711 13.9777 17.3875 14.055 17.5168C14.1323 17.6461 14.1739 17.7857 14.1772 17.9273C14.1806 18.0688 14.1456 18.2094 14.0745 18.3407C14.0034 18.4719 13.8975 18.5911 13.7632 18.6912C13.6289 18.7913 13.4689 18.8703 13.2928 18.9233C13.1167 18.9763 12.928 19.0023 12.7381 18.9998C12.5482 18.9973 12.3609 18.9664 12.1875 18.9087C12.014 18.8511 11.8578 18.7681 11.7283 18.6645L0.413628 10.2313C0.148769 10.0337 0 9.76574 0 9.48639C0 9.20704 0.148769 8.93911 0.413628 8.74146L11.7283 0.308288C11.9935 0.110881 12.353 0 12.7278 0C13.1026 0 13.4621 0.110881 13.7273 0.308288Z" fill="black"/>
</svg>
